<svg width="531" height="519" viewBox="0 0 531 519" fill="none" xmlns="http://www.w3.org/2000/svg">
<rect x="131.122" y="0.862503" width="65.2066" height="65.2066" rx="12.2262" transform="rotate(25 131.122 0.862503)" fill="#FF8345"/>
<path d="M147.966 59.559C147.813 59.492 147.681 59.3838 147.585 59.2461L142.812 52.9647L135.844 53.3666C134.706 53.4353 133.725 52.5675 133.657 51.428C133.656 51.4141 133.655 51.4001 133.655 51.3849C133.639 50.9143 133.772 50.4531 134.034 50.063L138.1 44.1734L135.709 37.4769C135.325 36.3685 135.892 35.1545 136.988 34.735C137.417 34.5665 137.89 34.5487 138.33 34.685L144.979 36.6371L150.423 32.1715C151.289 31.4362 152.588 31.5411 153.325 32.4077C153.644 32.783 153.817 33.2609 153.814 33.7526L153.896 40.8192L159.681 44.6784C160.149 44.9883 160.472 45.4772 160.574 46.0299C160.755 47.08 160.172 48.1121 159.179 48.499L152.559 50.928L151.58 54.6669C151.426 55.2247 150.855 55.5594 150.294 55.4161C149.744 55.2707 149.416 54.7072 149.562 54.1562L150.53 50.4121C150.718 49.7306 151.219 49.179 151.88 48.9312L158.527 46.4754L152.747 42.6039C152.164 42.2072 151.823 41.5389 151.845 40.8339L151.753 33.7925L146.222 38.3231C145.696 38.7939 144.965 38.9616 144.286 38.7692L137.637 36.8171L139.998 43.464C140.236 44.1218 140.14 44.8519 139.743 45.4267L135.677 51.3163L142.639 50.9261C143.335 50.8731 144.009 51.1871 144.415 51.7546L149.179 58.032C149.466 58.4222 149.455 58.958 149.151 59.3364C148.856 59.7188 148.337 59.8472 147.897 59.6508L147.966 59.559Z" fill="white"/>
<rect x="465.78" y="87.9775" width="65.2066" height="65.2066" rx="12.2262" fill="#48B774"/>
<path fill-rule="evenodd" clip-rule="evenodd" d="M511.968 118.98C511.968 119.547 511.507 120.007 510.941 120.007H510.929V119.983C510.355 119.983 509.891 119.52 509.89 118.946V118.944V115.49C509.89 111.343 507.621 109.074 503.486 109.074H493.297C489.159 109.074 486.877 111.357 486.877 115.49V125.679C486.877 129.801 489.159 132.083 493.293 132.083H503.482C507.615 132.083 509.885 129.801 509.885 125.679C509.885 125.106 510.35 124.64 510.925 124.64C511.499 124.64 511.964 125.106 511.964 125.679C511.968 130.916 508.719 134.165 503.486 134.165H493.293C488.048 134.165 484.799 130.916 484.799 125.683V115.495C484.799 110.245 488.048 106.996 493.293 106.996H503.482C508.694 106.996 511.968 110.245 511.968 115.49V118.98ZM496.772 122.365L502.499 116.636C502.897 116.238 503.542 116.238 503.94 116.636C504.338 117.034 504.338 117.68 503.94 118.078L497.492 124.526C497.3 124.717 497.041 124.824 496.772 124.824C496.5 124.824 496.242 124.717 496.05 124.526L492.827 121.301C492.429 120.903 492.429 120.258 492.827 119.86C493.225 119.462 493.87 119.462 494.268 119.86L496.772 122.365Z" fill="white"/>
<rect x="0.402435" y="472.229" width="65.2066" height="65.2066" rx="12.2262" transform="rotate(-45 0.402435 472.229)" fill="#48B774"/>
<path fill-rule="evenodd" clip-rule="evenodd" d="M45.3232 459.163L43.4376 461.049C41.8622 459.831 39.5837 459.944 38.14 461.388L35.6597 463.868C34.216 465.312 34.1017 467.59 35.3197 469.165L33.4446 471.042C31.4226 473.064 31.4188 476.349 33.435 478.365L36.7654 481.696C37.0074 481.938 37.3542 482.043 37.6904 481.973C40.9737 481.301 44.184 479.829 46.9754 477.72C47.3933 477.41 47.4999 476.848 47.2463 476.402C46.6815 475.409 46.8448 474.198 47.6526 473.391C48.4518 472.591 49.6804 472.433 50.6381 473.003C51.0425 473.244 51.5545 473.173 51.8792 472.849C51.9128 472.815 51.9436 472.781 51.9724 472.742C54.0981 469.934 55.5755 466.709 56.246 463.418C56.3133 463.082 56.2095 462.736 55.9674 462.494L52.6371 459.163C50.6208 457.147 47.3395 457.147 45.3232 459.163ZM54.1328 463.541C53.5353 466.1 52.4028 468.606 50.8245 470.859C49.2348 470.322 47.4423 470.719 46.2118 471.95C44.9909 473.171 44.5865 474.966 45.1023 476.563C42.8632 478.132 40.3667 479.263 37.8125 479.861L34.876 476.925C33.6541 475.703 33.6579 473.71 34.8865 472.482L37.457 469.908C37.6492 469.715 37.7558 469.457 37.7558 469.186C37.7539 468.915 37.6472 468.657 37.4561 468.466L37.0997 468.111C36.3274 467.339 36.3284 466.082 37.1007 465.309L39.5809 462.829C40.2274 462.183 41.2149 462.077 41.9728 462.514L39.3792 465.107C38.9815 465.505 38.9815 466.151 39.3792 466.548C39.7769 466.946 40.4224 466.946 40.8201 466.548L46.7641 460.604C47.986 459.382 49.9744 459.382 51.1963 460.604L54.1328 463.541ZM50.476 474.764L51.719 476.007C52.1167 476.405 52.1167 477.05 51.719 477.448C51.3213 477.845 50.6758 477.845 50.2781 477.448L49.0351 476.205C48.6374 475.807 48.6374 475.162 49.0351 474.764C49.4328 474.366 50.0783 474.366 50.476 474.764ZM57.9801 465.995C57.6026 466.373 57.5959 466.967 57.936 467.365C57.936 467.365 59.4681 469.193 59.9676 469.754C60.519 470.377 60.9195 471.254 60.9868 471.987C61.0838 473.024 60.785 473.766 59.9205 474.635C59.3528 475.204 56.2866 478.273 53.9697 480.59C53.5711 480.988 53.5711 481.634 53.9687 482.031C54.3664 482.429 55.0119 482.429 55.4096 482.031C57.6459 479.795 60.8283 476.611 61.3643 476.073C62.6428 474.789 63.1683 473.429 63.0165 471.798C62.9079 470.627 62.3383 469.358 61.492 468.403C61.1433 468.01 60.2563 466.974 59.7624 466.398L59.762 466.397C59.5597 466.161 59.4233 466.002 59.4172 465.995C59.0205 465.599 58.3769 465.599 57.9801 465.995ZM48.9064 485.649C49.0957 485.461 49.4857 485.071 49.9977 484.559C50.3953 484.162 51.0437 484.159 51.4414 484.556C51.8391 484.954 51.8353 485.603 51.4366 486.002C50.9179 486.521 50.5394 486.899 50.3454 487.091C49.0601 488.371 47.7009 488.896 46.0689 488.744C44.8998 488.635 43.63 488.066 42.6751 487.219C42.2878 486.876 41.276 486.01 40.6945 485.512C40.444 485.298 40.2733 485.152 40.2669 485.145C39.8702 484.748 39.8702 484.105 40.2669 483.708C40.6445 483.331 41.2381 483.325 41.6377 483.665C41.6377 483.665 43.4657 485.197 44.0267 485.695C44.6491 486.246 45.5252 486.648 46.2581 486.714C47.2975 486.812 48.039 486.512 48.9064 485.649Z" fill="white"/>
</svg>
