<svg width="637" height="561" viewBox="0 0 637 561" fill="none" xmlns="http://www.w3.org/2000/svg">
<rect x="399.298" y="70.454" width="11.4625" height="11.4625" rx="2.2925" transform="rotate(-45 399.298 70.454)" fill="#FF8345"/>
<rect x="620.524" y="551.879" width="11.4625" height="11.4625" rx="2.2925" transform="rotate(-45 620.524 551.879)" fill="#FF8345"/>
<rect x="415.345" y="230.929" width="11.4625" height="11.4625" rx="2.2925" transform="rotate(-45 415.345 230.929)" fill="#48B774"/>
<rect x="57.715" y="8.55646" width="11.4625" height="11.4625" rx="2.2925" transform="rotate(-45 57.715 8.55646)" fill="#48B774"/>
<rect x="125.344" y="375.356" width="11.4625" height="11.4625" rx="2.2925" transform="rotate(-45 125.344 375.356)" fill="#48B774"/>
<rect x="131.122" y="42.8625" width="65.2066" height="65.2066" rx="12.2262" transform="rotate(25 131.122 42.8625)" fill="#FF8345"/>
<path d="M147.966 101.559C147.813 101.492 147.681 101.384 147.585 101.246L142.812 94.9647L135.844 95.3666C134.706 95.4353 133.725 94.5675 133.657 93.428C133.656 93.4141 133.655 93.4001 133.655 93.3849C133.639 92.9143 133.772 92.4531 134.034 92.063L138.1 86.1734L135.709 79.4769C135.325 78.3685 135.892 77.1545 136.988 76.735C137.417 76.5665 137.89 76.5487 138.33 76.685L144.979 78.6371L150.423 74.1715C151.289 73.4362 152.588 73.5411 153.325 74.4077C153.644 74.783 153.817 75.2609 153.814 75.7526L153.896 82.8192L159.681 86.6784C160.149 86.9883 160.472 87.4772 160.574 88.0299C160.755 89.08 160.172 90.1121 159.179 90.499L152.559 92.928L151.58 96.6669C151.426 97.2247 150.855 97.5594 150.294 97.4161C149.744 97.2707 149.416 96.7072 149.562 96.1562L150.53 92.4121C150.718 91.7306 151.219 91.179 151.881 90.9312L158.527 88.4754L152.748 84.6039C152.164 84.2072 151.823 83.5389 151.845 82.8339L151.753 75.7925L146.222 80.3231C145.696 80.7939 144.965 80.9616 144.286 80.7692L137.637 78.8171L139.998 85.464C140.236 86.1218 140.14 86.8519 139.743 87.4267L135.677 93.3163L142.639 92.9261C143.335 92.8731 144.009 93.1871 144.415 93.7546L149.179 100.032C149.466 100.422 149.455 100.958 149.151 101.336C148.856 101.719 148.337 101.847 147.897 101.651L147.966 101.559Z" fill="white"/>
<rect x="465.78" y="129.978" width="65.2066" height="65.2066" rx="12.2262" fill="#48B774"/>
<path fill-rule="evenodd" clip-rule="evenodd" d="M511.968 160.98C511.968 161.547 511.508 162.007 510.941 162.007H510.929V161.983C510.356 161.983 509.891 161.52 509.89 160.946V160.944V157.49C509.89 153.343 507.621 151.074 503.486 151.074H493.297C489.159 151.074 486.877 153.357 486.877 157.49V167.679C486.877 171.801 489.159 174.083 493.293 174.083H503.482C507.616 174.083 509.886 171.801 509.886 167.679C509.886 167.106 510.35 166.64 510.925 166.64C511.499 166.64 511.964 167.106 511.964 167.679C511.968 172.916 508.719 176.165 503.486 176.165H493.293C488.048 176.165 484.799 172.916 484.799 167.683V157.495C484.799 152.245 488.048 148.996 493.293 148.996H503.482C508.694 148.996 511.968 152.245 511.968 157.49V160.98ZM496.772 164.365L502.499 158.636C502.897 158.238 503.542 158.238 503.94 158.636C504.338 159.034 504.338 159.68 503.94 160.078L497.492 166.526C497.3 166.717 497.041 166.824 496.772 166.824C496.5 166.824 496.242 166.717 496.05 166.526L492.827 163.301C492.429 162.903 492.429 162.258 492.827 161.86C493.225 161.462 493.87 161.462 494.268 161.86L496.772 164.365Z" fill="white"/>
<rect x="0.402527" y="514.229" width="65.2066" height="65.2066" rx="12.2262" transform="rotate(-45 0.402527 514.229)" fill="#48B774"/>
<path fill-rule="evenodd" clip-rule="evenodd" d="M45.3233 501.163L43.4377 503.049C41.8623 501.831 39.5838 501.944 38.14 503.388L35.6598 505.868C34.2161 507.312 34.1017 509.59 35.3198 511.165L33.4447 513.042C31.4227 515.064 31.4188 518.349 33.4351 520.365L36.7654 523.696C37.0075 523.938 37.3543 524.043 37.6905 523.973C40.9738 523.301 44.184 521.829 46.9755 519.72C47.3933 519.41 47.5 518.848 47.2464 518.402C46.6815 517.409 46.8448 516.198 47.6527 515.391C48.4519 514.591 49.6805 514.433 50.6382 515.003C51.0426 515.244 51.5546 515.173 51.8793 514.849C51.9129 514.815 51.9436 514.781 51.9724 514.742C54.0982 511.934 55.5756 508.709 56.2461 505.418C56.3133 505.082 56.2096 504.736 55.9675 504.494L52.6372 501.163C50.6209 499.147 47.3395 499.147 45.3233 501.163ZM54.1328 505.541C53.5354 508.1 52.4028 510.606 50.8246 512.859C49.2348 512.322 47.4424 512.719 46.2119 513.95C44.991 515.171 44.5866 516.966 45.1024 518.563C42.8633 520.132 40.3667 521.263 37.8125 521.861L34.876 518.925C33.6542 517.703 33.658 515.71 34.8866 514.482L37.4571 511.908C37.6492 511.715 37.7559 511.457 37.7559 511.186C37.7539 510.915 37.6473 510.657 37.4561 510.466L37.0998 510.111C36.3275 509.339 36.3284 508.082 37.1007 507.309L39.581 504.829C40.2274 504.183 41.2149 504.077 41.9728 504.514L39.3792 507.107C38.9816 507.505 38.9816 508.151 39.3792 508.548C39.7769 508.946 40.4224 508.946 40.8201 508.548L46.7642 502.604C47.9861 501.382 49.9745 501.382 51.1963 502.604L54.1328 505.541ZM50.476 516.764L51.719 518.007C52.1167 518.405 52.1167 519.05 51.719 519.448C51.3213 519.845 50.6758 519.845 50.2782 519.448L49.0352 518.205C48.6375 517.807 48.6375 517.162 49.0352 516.764C49.4328 516.366 50.0784 516.366 50.476 516.764ZM57.9802 507.995C57.6027 508.373 57.596 508.967 57.936 509.365C57.936 509.365 59.4681 511.193 59.9676 511.754C60.519 512.377 60.9196 513.254 60.9868 513.987C61.0838 515.024 60.7851 515.766 59.9206 516.635C59.3529 517.204 56.2867 520.273 53.9698 522.59C53.5711 522.988 53.5711 523.634 53.9688 524.031C54.3665 524.429 55.012 524.429 55.4097 524.031C57.6459 521.795 60.8283 518.611 61.3643 518.073C62.6429 516.789 63.1683 515.429 63.0165 513.798C62.908 512.627 62.3384 511.358 61.4921 510.403C61.1433 510.01 60.2564 508.974 59.7624 508.398L59.7621 508.397C59.5597 508.161 59.4234 508.002 59.4172 507.995C59.0205 507.599 58.3769 507.599 57.9802 507.995ZM48.9065 527.649C49.0957 527.461 49.4857 527.071 49.9977 526.559C50.3954 526.162 51.0438 526.159 51.4415 526.556C51.8392 526.954 51.8353 527.603 51.4367 528.002C50.918 528.521 50.5395 528.899 50.3455 529.091C49.0602 530.371 47.701 530.896 46.0689 530.744C44.8999 530.635 43.63 530.066 42.6752 529.219C42.2878 528.876 41.276 528.01 40.6946 527.512C40.444 527.298 40.2734 527.152 40.267 527.145C39.8703 526.748 39.8703 526.105 40.267 525.708C40.6445 525.331 41.2382 525.325 41.6378 525.665C41.6378 525.665 43.4658 527.197 44.0267 527.695C44.6492 528.246 45.5252 528.648 46.2582 528.714C47.2975 528.812 48.0391 528.512 48.9065 527.649Z" fill="white"/>
</svg>
