<svg width="180" height="34" viewBox="0 0 180 34" fill="none" xmlns="http://www.w3.org/2000/svg">
<g clip-path="url(#clip0_2_552)">
<path d="M3.80218 26.3038C3.13969 26.3052 2.4887 26.1308 1.91571 25.7982C1.34272 25.4657 0.868263 24.987 0.540811 24.4111C0.218316 23.8393 0.0574543 23.1906 0.075458 22.5343C0.0934618 21.8781 0.289652 21.2391 0.643014 20.6858L7.35962 10.1389C7.70335 9.572 8.19138 9.10652 8.77387 8.78998C9.35636 8.47343 10.0124 8.31717 10.6751 8.33715C11.3373 8.353 11.9833 8.54451 12.5472 8.89206C13.111 9.23962 13.5724 9.73075 13.8841 10.3152C14.1912 10.8951 14.3346 11.5477 14.299 12.2029C14.2634 12.8581 14.0502 13.4913 13.6822 14.0345L6.96978 24.5825C6.62933 25.113 6.16049 25.5489 5.6067 25.8498C5.05291 26.1508 4.43211 26.3071 3.80183 26.3042L3.80218 26.3038Z" fill="#F62B54"/>
<path d="M15.3226 26.3037C13.968 26.3037 12.7215 25.5795 12.0668 24.4152C11.7451 23.845 11.5847 23.1979 11.6028 22.5434C11.6209 21.889 11.8167 21.2517 12.1694 20.7001L18.873 10.177C19.2116 9.60217 19.6979 9.12836 20.2814 8.80476C20.8649 8.48116 21.5243 8.31955 22.1913 8.33668C23.5575 8.36689 24.7955 9.13113 25.4217 10.3263C25.7273 10.9117 25.8662 11.5697 25.8235 12.2287C25.7808 12.8876 25.558 13.5222 25.1794 14.0632L18.4775 24.5859C18.1382 25.1141 17.6712 25.5483 17.1199 25.8484C16.5685 26.1486 15.9504 26.305 15.3226 26.3034V26.3037Z" fill="#FFCC00"/>
<path d="M26.5857 26.3918C28.4955 26.3918 30.0437 24.8762 30.0437 23.0065C30.0437 21.1368 28.4955 19.6212 26.5857 19.6212C24.6758 19.6212 23.1276 21.1368 23.1276 23.0065C23.1276 24.8762 24.6758 26.3918 26.5857 26.3918Z" fill="#00CA72"/>
<path d="M176.806 19.8178C177.85 19.8178 178.475 20.5606 178.475 21.7773V25.9465H179.894V21.6817C179.894 19.6131 178.919 18.4133 177.086 18.4133C176.369 18.4133 175.23 18.6097 174.552 19.9288C174.394 19.5397 174.134 19.2005 173.799 18.9474C173.464 18.6943 173.066 18.5367 172.649 18.4913C172.386 18.4432 172.118 18.4276 171.852 18.4446C171.269 18.4913 170.23 18.8545 169.841 19.6766V18.571H168.421V25.9465H169.841V21.9666C169.841 20.4181 170.855 19.8178 171.869 19.8178C172.82 19.8178 173.445 20.5448 173.445 21.7614V25.9465H174.856V21.9666C174.856 20.7338 175.596 19.8034 176.805 19.8178H176.806ZM163.209 24.7141C163.531 24.7207 163.85 24.6607 164.148 24.5377C164.446 24.4148 164.714 24.2316 164.938 23.9997C165.163 23.7662 165.339 23.4895 165.455 23.1862C165.57 22.883 165.623 22.5595 165.611 22.2352C165.611 20.7496 164.518 19.8178 163.209 19.8178C161.898 19.8178 160.806 20.7496 160.806 22.2352C160.794 22.5586 160.846 22.8812 160.961 23.1838C161.076 23.4863 161.251 23.7624 161.476 23.9955C161.698 24.2272 161.965 24.4106 162.262 24.5342C162.558 24.6579 162.877 24.7191 163.198 24.7141H163.209ZM163.209 26.0972C161.134 26.0972 159.402 24.5648 159.402 22.2268C159.402 19.8888 161.134 18.4045 163.209 18.4045C165.283 18.4045 167.03 19.8888 167.03 22.2268C167.03 24.5648 165.274 26.1042 163.199 26.1042L163.209 26.0972V26.0972ZM152.095 22.2268L152.081 22.2352C152.081 19.8972 153.858 18.4133 155.947 18.4045C156.472 18.3944 156.993 18.4945 157.477 18.6985C157.96 18.9024 158.396 19.2056 158.755 19.5885L157.679 20.5052C157.45 20.2808 157.18 20.1039 156.883 19.9846C156.585 19.8654 156.268 19.8062 155.947 19.8105C154.638 19.8105 153.499 20.7426 153.499 22.2268C153.499 23.2299 154.096 24.1339 155.011 24.5178C155.459 24.7052 155.952 24.7541 156.428 24.6583C156.903 24.5624 157.339 24.3262 157.679 23.9801L158.77 24.8964C158.41 25.2832 157.973 25.5901 157.486 25.797C157 26.0039 156.476 26.1063 155.947 26.0975C153.874 26.0975 152.095 24.5648 152.095 22.2268ZM147.552 24.5308C147.549 24.2704 147.649 24.0195 147.831 23.8332C148.013 23.6469 148.262 23.5406 148.522 23.5375C148.782 23.5406 149.031 23.6469 149.213 23.8332C149.395 24.0195 149.495 24.2704 149.492 24.5308C149.48 24.7804 149.372 25.0158 149.192 25.1889C149.012 25.3621 148.772 25.4599 148.522 25.4625C148.272 25.4599 148.033 25.3621 147.852 25.1889C147.672 25.0158 147.564 24.7804 147.552 24.5308ZM151.434 9.19503H146.38L142.839 18.3266L139.315 9.19503H134.262L140.405 23.6243L136.585 33.1639H141.601L151.434 9.19503V9.19503ZM120.702 17.2206C120.702 19.526 122.717 21.0429 124.697 21.0429C126.642 21.0429 128.553 19.631 128.553 17.2192C128.553 14.8074 126.642 13.3945 124.697 13.3945C122.717 13.3945 120.702 14.9128 120.702 17.2192V17.2206ZM128.553 25.2774V23.4518C127.529 25.0031 125.138 25.5893 123.911 25.5893C119.85 25.5893 115.788 22.3877 115.788 17.2192C115.788 12.0525 119.849 8.85049 123.911 8.85049C124.935 8.85049 127.325 9.19222 128.553 10.9852V9.201H133.263V25.2806L128.553 25.2792V25.2778L128.553 25.2774ZM114.447 25.2774H109.737V23.2797C108.95 24.7598 107.042 25.6223 105.061 25.6223C100.964 25.6223 97.3453 22.3504 97.3453 17.2845C97.3453 12.1234 100.964 8.84768 105.061 8.84768C107.039 8.84768 108.953 9.67303 109.737 11.1544V0.435059H114.447V25.2778V25.2774ZM109.634 17.1837C109.634 14.773 107.894 13.3601 105.949 13.3601C103.934 13.3601 102.261 14.8756 102.261 17.1837C102.261 19.5657 103.934 21.0741 105.948 21.0741C107.93 21.0769 109.634 19.4919 109.634 17.1837Z" fill="#333333"/>
<path d="M85.6998 16.7682C85.6998 14.3238 86.9635 13.4967 88.6353 13.4967C90.2389 13.4967 91.4004 14.564 91.4004 16.6983V25.275H96.1445V15.6668C96.1445 11.0877 93.8905 8.84766 90.306 8.84766C88.4291 8.84766 86.5522 9.91535 85.6981 11.5344V9.19501H80.9567V25.275H85.6998V16.7682ZM71.3232 25.551C66.8179 25.551 63.0599 22.2454 63.0599 17.1823C63.0599 12.1164 66.8136 8.84344 71.3232 8.84344C75.8328 8.84344 79.6189 12.1164 79.6189 17.1823C79.6189 22.2482 75.8282 25.5524 71.3232 25.5524V25.551V25.551ZM71.3232 20.8693C73.3013 20.8693 74.9418 19.4206 74.9418 17.1837C74.9418 15.0136 73.3027 13.5321 71.3232 13.5321C70.8466 13.5247 70.3735 13.6144 69.9326 13.7957C69.4918 13.9771 69.0925 14.2462 68.759 14.5868C68.4236 14.9292 68.1604 15.3356 67.9852 15.7817C67.8099 16.2278 67.7261 16.7046 67.7387 17.1837C67.7402 19.4234 69.3779 20.8693 71.3232 20.8693Z" fill="#333333"/>
<path d="M54.5542 13.4981C55.9531 13.4981 57.1827 14.6009 57.1827 16.6997V25.2778H61.8924V16.1448C61.8924 11.2896 59.5319 8.84485 55.7479 8.84485C54.6241 8.84485 52.5062 9.18658 50.9697 11.7023C50.0818 9.8423 48.3756 8.87751 45.8539 8.87751C44.9784 8.87307 44.1202 9.12088 43.3818 9.59131C42.6434 10.0617 42.0562 10.7349 41.6903 11.5302V9.19641H36.9433V25.2764H41.6861V16.7682C41.6861 14.3238 43.0179 13.4967 44.4508 13.4967C45.817 13.4967 47.0438 14.564 47.0793 16.5961V25.2764H51.8235V16.7682C51.8235 14.4302 53.0527 13.4995 54.5542 13.4995V13.4981V13.4981Z" fill="#333333"/>
</g>
<defs>
<clipPath id="clip0_2_552">
<rect width="179.821" height="33.3653" fill="white" transform="translate(0.0738831 0.435059)"/>
</clipPath>
</defs>
</svg>
