<svg width="103" height="34" viewBox="0 0 103 34" fill="none" xmlns="http://www.w3.org/2000/svg">
<g clip-path="url(#clip0_2_560)">
<path d="M99.3361 20.4111L102.157 22.2916C101.242 23.6401 99.0517 25.9539 95.2658 25.9539C90.5644 25.9539 87.0633 22.3165 87.0633 17.6892C87.0633 12.7652 90.6016 9.42474 94.87 9.42474C99.163 9.42474 101.266 12.8393 101.947 14.6828L102.318 15.6231L91.2574 20.2007C92.0986 21.8587 93.4102 22.7 95.2658 22.7C97.1217 22.7 98.4083 21.7844 99.3361 20.4111V20.4111ZM90.6635 17.4296L98.0496 14.3612C97.6413 13.3344 96.429 12.6046 94.9812 12.6046C93.1379 12.6046 90.577 14.2377 90.6635 17.4296Z" fill="#FF302F"/>
<path d="M81.7309 0.999466H85.2939V25.1992H81.7309V0.999268V0.999466Z" fill="#20B15A"/>
<path d="M76.1141 10.0681H79.5535V24.7661C79.5535 30.8654 75.9532 33.3769 71.6972 33.3769C67.6887 33.3769 65.2763 30.6799 64.3731 28.4901L67.5279 27.1785C68.0969 28.527 69.4702 30.1232 71.6972 30.1232C74.4313 30.1232 76.1141 28.4281 76.1141 25.261V24.0733H75.9904C75.1737 25.063 73.6149 25.9537 71.6354 25.9537C67.5031 25.9537 63.7171 22.3534 63.7171 17.7141C63.7171 13.0497 67.5031 9.41248 71.6354 9.41248C73.6025 9.41248 75.1737 10.2909 75.9904 11.2559H76.1141V10.0683V10.0681ZM76.3613 17.7141C76.3613 14.7942 74.419 12.6662 71.9446 12.6662C69.4454 12.6662 67.3422 14.7942 67.3422 17.7141C67.3422 20.5966 69.4454 22.6875 71.9446 22.6875C74.4192 22.7 76.3615 20.5966 76.3615 17.7141H76.3613Z" fill="#3686F7"/>
<path d="M44.1571 17.6521C44.1571 22.4154 40.4456 25.9165 35.8927 25.9165C31.3399 25.9165 27.6282 22.4031 27.6282 17.6521C27.6282 12.8642 31.3399 9.37531 35.8927 9.37531C40.4456 9.37531 44.1571 12.8642 44.1571 17.6521ZM40.5445 17.6521C40.5445 14.683 38.3917 12.6413 35.8927 12.6413C33.3936 12.6413 31.2408 14.683 31.2408 17.6521C31.2408 20.5966 33.3936 22.6628 35.8927 22.6628C38.3919 22.6628 40.5445 20.5966 40.5445 17.6521Z" fill="#FF302F"/>
<path d="M62.2079 17.6892C62.2079 22.4525 58.4962 25.9537 53.9434 25.9537C49.3905 25.9537 45.679 22.4523 45.679 17.6892C45.679 12.9013 49.3905 9.42474 53.9434 9.42474C58.4962 9.42474 62.2079 12.889 62.2079 17.6892V17.6892ZM58.5828 17.6892C58.5828 14.7201 56.4301 12.6785 53.9309 12.6785C51.4319 12.6785 49.279 14.7201 49.279 17.6892C49.279 20.6337 51.4319 22.7 53.9309 22.7C56.4425 22.7 58.5828 20.6214 58.5828 17.6892Z" fill="#FFBA40"/>
<path d="M14.0437 22.3288C8.85978 22.3288 4.80193 18.147 4.80193 12.9631C4.80193 7.77933 8.85978 3.59755 14.0437 3.59755C16.8398 3.59755 18.8811 4.6986 20.3905 6.10908L22.8774 3.62237C20.7742 1.60576 17.9657 0.0713501 14.0437 0.0713501C6.94227 0.0715487 0.966507 5.86182 0.966507 12.9631C0.966507 20.0647 6.94227 25.8548 14.0437 25.8548C17.8791 25.8548 20.7742 24.5929 23.0382 22.2422C25.3641 19.9162 26.0816 16.6499 26.0816 14.0024C26.0816 13.1734 25.9827 12.3198 25.8713 11.6888H14.0437V15.1282H22.469C22.2216 17.2811 21.5412 18.7533 20.539 19.7553C19.3266 20.9803 17.409 22.3288 14.0437 22.3288V22.3288Z" fill="#3686F7"/>
</g>
<defs>
<clipPath id="clip0_2_560">
<rect width="101.685" height="33.3653" fill="white" transform="translate(0.818756 0.0201416)"/>
</clipPath>
</defs>
</svg>
